<svg width="20" height="23" viewBox="0 0 20 23" fill="none" xmlns="http://www.w3.org/2000/svg">
<path fill-rule="evenodd" clip-rule="evenodd" d="M1.60487 9.25198C1.60487 6.22293 4.39864 3 8.5 3C12.6014 3 15.3951 6.22293 15.3951 9.25198C15.3951 9.95001 15.4837 10.4241 15.5977 10.7779C15.7123 11.1335 15.8649 11.4089 16.0563 11.7296C16.0757 11.7622 16.0959 11.7958 16.1168 11.8304C16.2933 12.1239 16.5149 12.4922 16.6835 12.9338C16.8805 13.4499 17 14.0419 17 14.7957C17 14.8246 16.9988 14.8534 16.9963 14.8821C16.9278 15.6723 16.6909 16.3872 16.2256 16.9898C15.763 17.5888 15.1318 18.0029 14.3976 18.2908C12.9776 18.8476 10.9844 19 8.5 19C6.0171 19 4.02388 18.8501 2.60386 18.2947C1.86936 18.0075 1.23769 17.5936 0.774727 16.9936C0.309197 16.3903 0.07239 15.6741 0.00373578 14.8821C0.00124645 14.8534 0 14.8246 0 14.7957C0 14.0419 0.119516 13.4499 0.316507 12.9338C0.485059 12.4922 0.706662 12.1239 0.88321 11.8304C0.904055 11.7958 0.924273 11.7622 0.943701 11.7296C1.13507 11.4089 1.28771 11.1335 1.4023 10.7779C1.5163 10.4241 1.60487 9.95001 1.60487 9.25198ZM8.5 5C5.46272 5 3.60487 7.36755 3.60487 9.25198C3.60487 10.1266 3.49282 10.8113 3.30591 11.3913C3.11959 11.9695 2.87101 12.4028 2.66116 12.7545C2.64116 12.788 2.62175 12.8204 2.60292 12.8519C2.41723 13.1621 2.28712 13.3795 2.18501 13.647C2.08401 13.9116 2.00458 14.2483 2.00019 14.7517C2.04698 15.2236 2.17913 15.5398 2.35815 15.7718C2.54503 16.014 2.84162 16.2402 3.33235 16.4321C4.36282 16.8352 6.00799 17 8.5 17C10.9914 17 12.637 16.8329 13.6675 16.4288C14.1586 16.2363 14.4555 16.0096 14.6426 15.7674C14.8216 15.5356 14.9533 15.2205 14.9998 14.7517C14.9954 14.2483 14.916 13.9116 14.815 13.647C14.7129 13.3795 14.5828 13.1621 14.3971 12.8519C14.3783 12.8204 14.3588 12.788 14.3388 12.7545C14.129 12.4028 13.8804 11.9695 13.6941 11.3913C13.5072 10.8113 13.3951 10.1266 13.3951 9.25198C13.3951 7.36755 11.5373 5 8.5 5ZM5.85523 20.2356C6.27739 19.8795 6.90828 19.9331 7.26438 20.3552C7.65974 20.8239 8.10855 21.0011 8.50129 21C8.89561 20.9989 9.34457 20.8178 9.73634 20.3544C10.0929 19.9326 10.7239 19.8798 11.1456 20.2363C11.5674 20.5929 11.6202 21.2239 11.2637 21.6456C10.5348 22.5077 9.54946 22.9971 8.50675 23C7.46246 23.0028 6.47158 22.5172 5.73562 21.6448C5.37953 21.2226 5.43308 20.5917 5.85523 20.2356Z" fill="#808281"/>
<circle cx="14.5" cy="5.5" r="5" fill="#FF4949" stroke="white"/>
</svg>
