<svg width="24" height="24" viewBox="0 0 24 24" fill="none" xmlns="http://www.w3.org/2000/svg">
<g clip-path="url(#clip0_1_52)">
<path fill-rule="evenodd" clip-rule="evenodd" d="M13.8448 2.46829C13.8456 2.46881 13.8465 2.46932 13.8474 2.46984L18.7316 5.36089C18.7517 5.37282 18.7715 5.38545 18.7907 5.39876L18.8209 5.41959C19.2396 5.70893 19.5998 5.95782 19.8799 6.18501C20.1739 6.42344 20.4491 6.6915 20.6486 7.04474C20.8529 7.40666 20.9322 7.77658 20.9676 8.1452C21.0001 8.48274 21 8.88415 21 9.32873V14.6713C21 15.1158 21.0001 15.5173 20.9676 15.8548C20.9322 16.2234 20.8529 16.5933 20.6486 16.9553C20.4491 17.3085 20.1739 17.5766 19.8799 17.815C19.5998 18.0422 19.2396 18.2911 18.8209 18.5804L18.7907 18.6012C18.7715 18.6146 18.7517 18.6272 18.7316 18.6391L13.8474 21.5302C13.8465 21.5307 13.8455 21.5313 13.8446 21.5318C13.2882 21.8644 12.6177 22 12.0033 22C11.3874 22 10.7161 21.8638 10.1573 21.5329C10.1573 21.5329 10.1573 21.533 10.1573 21.5329L5.2684 18.6391C5.24826 18.6272 5.22853 18.6146 5.20927 18.6012L5.17907 18.5804C4.7604 18.2911 4.40007 18.0421 4.11982 17.8146C3.82553 17.5758 3.55021 17.3072 3.35083 16.953C3.14675 16.5906 3.06764 16.2199 3.03232 15.8505C2.99994 15.5119 2.99997 15.109 3 14.6621V9.3287C2.99997 8.88413 2.99994 8.48274 3.03236 8.1452C3.06776 7.77658 3.14709 7.40666 3.35144 7.04474C3.55088 6.6915 3.82611 6.42344 4.12009 6.18501C4.40021 5.95781 4.76041 5.70892 5.17915 5.41957L5.20927 5.39876C5.22853 5.38545 5.24826 5.37282 5.2684 5.36089L10.1572 2.46711C10.1572 2.46713 10.1572 2.46709 10.1572 2.46711C10.716 2.13629 11.3874 2 12.0033 2C12.6178 2 13.2883 2.13561 13.8448 2.46829ZM12.0033 4C11.6526 4 11.3551 4.08215 11.1761 4.1881L6.31739 7.06408C5.87648 7.36881 5.58857 7.56911 5.37991 7.73834C5.17389 7.90543 5.11579 7.98772 5.09301 8.02806C5.07514 8.05972 5.04335 8.12661 5.0232 8.33641C5.00106 8.56686 5 8.87106 5 9.37007V14.6208C5 15.122 5.00105 15.4282 5.02324 15.6602C5.04347 15.8718 5.07547 15.9397 5.09361 15.9719C5.11646 16.0125 5.17447 16.0948 5.38018 16.2617C5.58869 16.431 5.87644 16.6312 6.3174 16.9359L11.176 19.8118C11.355 19.9178 11.6526 20 12.0033 20C12.3546 20 12.6474 19.9176 12.8193 19.8146L12.824 19.8118L17.6826 16.9359C18.1235 16.6312 18.4114 16.4309 18.6201 16.2617C18.8261 16.0946 18.8842 16.0123 18.907 15.9719C18.9249 15.9403 18.9567 15.8734 18.9768 15.6636C18.9989 15.4331 19 15.1289 19 14.6299V9.37007C19 8.87106 18.9989 8.56686 18.9768 8.33641C18.9567 8.12661 18.9249 8.05972 18.907 8.02806C18.8842 7.98772 18.8261 7.90543 18.6201 7.73834C18.4114 7.5691 18.1235 7.36881 17.6826 7.06408L12.8193 4.18538C12.6474 4.08238 12.3546 4 12.0033 4ZM12 10C10.8954 10 10 10.8954 10 12C10 13.1046 10.8954 14 12 14C13.1046 14 14 13.1046 14 12C14 10.8954 13.1046 10 12 10ZM8 12C8 9.79086 9.79086 8 12 8C14.2091 8 16 9.79086 16 12C16 14.2091 14.2091 16 12 16C9.79086 16 8 14.2091 8 12Z" fill="#6F767E"/>
</g>
<defs>
<clipPath id="clip0_1_52">
<rect width="24" height="24" fill="white"/>
</clipPath>
</defs>
</svg>
