<svg width="20" height="20" viewBox="0 0 20 20" fill="none" xmlns="http://www.w3.org/2000/svg">
<path d="M18.125 10.3125C18.125 10.5611 18.0262 10.7996 17.8504 10.9754C17.6746 11.1512 17.4361 11.25 17.1875 11.25H11.25V17.1875C11.25 17.4361 11.1512 17.6746 10.9754 17.8504C10.7996 18.0262 10.5611 18.125 10.3125 18.125C10.0639 18.125 9.8254 18.0262 9.64959 17.8504C9.47377 17.6746 9.375 17.4361 9.375 17.1875V11.25H3.4375C3.18886 11.25 2.9504 11.1512 2.77459 10.9754C2.59877 10.7996 2.5 10.5611 2.5 10.3125C2.5 10.0639 2.59877 9.8254 2.77459 9.64959C2.9504 9.47377 3.18886 9.375 3.4375 9.375H9.375V3.4375C9.375 3.18886 9.47377 2.9504 9.64959 2.77459C9.8254 2.59877 10.0639 2.5 10.3125 2.5C10.5611 2.5 10.7996 2.59877 10.9754 2.77459C11.1512 2.9504 11.25 3.18886 11.25 3.4375V9.375H17.1875C17.4361 9.375 17.6746 9.47377 17.8504 9.64959C18.0262 9.8254 18.125 10.0639 18.125 10.3125Z" fill="#3F526E"/>
</svg>
