<svg width="24" height="24" viewBox="0 0 24 24" fill="none" xmlns="http://www.w3.org/2000/svg">
<g clip-path="url(#clip0_1_46)">
<path fill-rule="evenodd" clip-rule="evenodd" d="M8.83788 7.33541C8.81082 7.31638 8.76979 7.30633 8.72791 7.31646C6.20685 7.92448 3.86976 10.6954 3.86976 13.662C3.86976 17.2553 6.84425 20.1687 10.5143 20.1687C13.8371 20.1687 16.5819 17.833 17.0773 14.6904C17.0774 14.6897 17.0775 14.6888 17.0776 14.6884C17.0763 14.6859 17.0731 14.6811 17.0668 14.6746C17.0433 14.6506 16.9969 14.6258 16.9374 14.6258C15.8652 14.6258 14.9999 14.6448 14.2892 14.664C14.1338 14.6682 13.9845 14.6724 13.8411 14.6765C13.337 14.6908 12.9067 14.7031 12.5459 14.7034C11.6246 14.7041 10.898 14.6372 10.2185 14.1442C9.52352 13.6398 9.20423 12.9364 9.04245 11.9146C8.88732 10.9349 8.85218 9.49936 8.85218 7.3499M8.83788 7.33541C8.84632 7.34134 8.8505 7.34618 8.85217 7.3484L8.83788 7.33541ZM8.28028 5.53845C9.42009 5.26319 10.7219 6.03529 10.7219 7.3499C10.7219 9.52993 10.7611 10.8191 10.8901 11.634C11.0125 12.4069 11.1872 12.568 11.3316 12.6728C11.4916 12.7889 11.6782 12.8728 12.5443 12.8721C12.8763 12.8719 13.2701 12.8607 13.7674 12.8465C13.9147 12.8423 14.0711 12.8379 14.2377 12.8334C14.9577 12.814 15.8417 12.7945 16.9374 12.7945C18.0336 12.7945 19.1248 13.7054 18.9252 14.9698C18.2889 19.0058 14.7591 22 10.5143 22C5.81176 22 2 18.2669 2 13.662C2 9.87428 4.90297 6.35329 8.28028 5.53845Z" fill="#6F767E"/>
<path fill-rule="evenodd" clip-rule="evenodd" d="M19.5147 4.81228C21.0095 6.37309 22.0302 8.40872 21.9993 10.121L21.0646 10.1048L21.9994 10.1191C21.9993 10.1197 21.9993 10.1203 21.9993 10.121C21.9866 10.861 21.4371 11.5163 20.6573 11.6318C18.2503 11.9885 15.0277 11.8739 13.6158 11.7948C12.7153 11.7439 12.0017 11.0445 11.9496 10.1628C11.8688 8.81699 11.7212 5.812 11.8309 3.47313C11.8667 2.70198 12.5001 2.01646 13.3576 2.00114M19.5147 4.81228C18.0013 3.23205 15.8289 1.95653 13.3576 2.00114L19.5147 4.81228ZM18.1509 6.0651C16.9408 4.80154 15.3587 3.90378 13.687 3.83546C13.6071 5.9824 13.7333 8.65246 13.8111 9.97141C15.1994 10.0464 17.9977 10.133 20.1234 9.85645C20.0484 8.79677 19.3597 7.32722 18.1509 6.0651ZM13.6988 3.5561C13.6987 3.55645 13.6987 3.5568 13.6987 3.55716L13.6988 3.5561Z" fill="#6F767E"/>
</g>
<defs>
<clipPath id="clip0_1_46">
<rect width="24" height="24" fill="white"/>
</clipPath>
</defs>
</svg>
